<mxfile host="app.diagrams.net" modified="2024-03-12T14:34:12.107Z" agent="Mozilla/5.0 (Windows NT 10.0; Win64; x64) AppleWebKit/537.36 (KHTML, like Gecko) Chrome/122.0.0.0 Safari/537.36" etag="jcZjkxFK9HI5242dO9zU" version="24.0.4" type="device">
  <diagram id="CaYxk0USNFWt2vr_ihTA" name="Page-1">
    <mxGraphModel dx="882" dy="578" grid="1" gridSize="10" guides="1" tooltips="1" connect="1" arrows="1" fold="1" page="1" pageScale="1" pageWidth="850" pageHeight="1100" math="0" shadow="0">
      <root>
        <mxCell id="0" />
        <mxCell id="1" parent="0" />
        <mxCell id="iPAgx51U0GACMJcgSTTd-1" value="Geocoding DB" style="rounded=1;whiteSpace=wrap;html=1;" vertex="1" parent="1">
          <mxGeometry x="80" y="160" width="120" height="60" as="geometry" />
        </mxCell>
        <mxCell id="iPAgx51U0GACMJcgSTTd-16" style="edgeStyle=orthogonalEdgeStyle;rounded=0;orthogonalLoop=1;jettySize=auto;html=1;exitX=0;exitY=0.5;exitDx=0;exitDy=0;entryX=1;entryY=0.5;entryDx=0;entryDy=0;" edge="1" parent="1" source="iPAgx51U0GACMJcgSTTd-2" target="iPAgx51U0GACMJcgSTTd-1">
          <mxGeometry relative="1" as="geometry" />
        </mxCell>
        <mxCell id="iPAgx51U0GACMJcgSTTd-2" value="Geocoding service" style="rounded=1;whiteSpace=wrap;html=1;" vertex="1" parent="1">
          <mxGeometry x="280" y="160" width="120" height="60" as="geometry" />
        </mxCell>
        <mxCell id="iPAgx51U0GACMJcgSTTd-15" style="edgeStyle=orthogonalEdgeStyle;rounded=0;orthogonalLoop=1;jettySize=auto;html=1;exitX=0;exitY=0.5;exitDx=0;exitDy=0;entryX=1;entryY=0.5;entryDx=0;entryDy=0;" edge="1" parent="1" source="iPAgx51U0GACMJcgSTTd-3" target="iPAgx51U0GACMJcgSTTd-2">
          <mxGeometry relative="1" as="geometry" />
        </mxCell>
        <mxCell id="iPAgx51U0GACMJcgSTTd-17" style="edgeStyle=orthogonalEdgeStyle;rounded=0;orthogonalLoop=1;jettySize=auto;html=1;exitX=0.5;exitY=1;exitDx=0;exitDy=0;entryX=0.5;entryY=0;entryDx=0;entryDy=0;" edge="1" parent="1" source="iPAgx51U0GACMJcgSTTd-3" target="iPAgx51U0GACMJcgSTTd-5">
          <mxGeometry relative="1" as="geometry" />
        </mxCell>
        <mxCell id="iPAgx51U0GACMJcgSTTd-3" value="Navigation service" style="rounded=1;whiteSpace=wrap;html=1;" vertex="1" parent="1">
          <mxGeometry x="480" y="160" width="120" height="60" as="geometry" />
        </mxCell>
        <mxCell id="iPAgx51U0GACMJcgSTTd-14" style="edgeStyle=orthogonalEdgeStyle;rounded=0;orthogonalLoop=1;jettySize=auto;html=1;exitX=0.5;exitY=1;exitDx=0;exitDy=0;entryX=0.5;entryY=0;entryDx=0;entryDy=0;" edge="1" parent="1" source="iPAgx51U0GACMJcgSTTd-4" target="iPAgx51U0GACMJcgSTTd-3">
          <mxGeometry relative="1" as="geometry" />
        </mxCell>
        <mxCell id="iPAgx51U0GACMJcgSTTd-4" value="User" style="rounded=1;whiteSpace=wrap;html=1;" vertex="1" parent="1">
          <mxGeometry x="480" y="40" width="120" height="60" as="geometry" />
        </mxCell>
        <mxCell id="iPAgx51U0GACMJcgSTTd-18" style="edgeStyle=orthogonalEdgeStyle;rounded=0;orthogonalLoop=1;jettySize=auto;html=1;exitX=0.5;exitY=1;exitDx=0;exitDy=0;entryX=0.5;entryY=0;entryDx=0;entryDy=0;" edge="1" parent="1" source="iPAgx51U0GACMJcgSTTd-5" target="iPAgx51U0GACMJcgSTTd-6">
          <mxGeometry relative="1" as="geometry" />
        </mxCell>
        <mxCell id="iPAgx51U0GACMJcgSTTd-20" style="edgeStyle=orthogonalEdgeStyle;rounded=0;orthogonalLoop=1;jettySize=auto;html=1;exitX=0;exitY=0.5;exitDx=0;exitDy=0;entryX=0.5;entryY=0;entryDx=0;entryDy=0;" edge="1" parent="1" source="iPAgx51U0GACMJcgSTTd-5" target="iPAgx51U0GACMJcgSTTd-7">
          <mxGeometry relative="1" as="geometry" />
        </mxCell>
        <mxCell id="iPAgx51U0GACMJcgSTTd-21" style="edgeStyle=orthogonalEdgeStyle;rounded=0;orthogonalLoop=1;jettySize=auto;html=1;exitX=1;exitY=0.5;exitDx=0;exitDy=0;" edge="1" parent="1" source="iPAgx51U0GACMJcgSTTd-5" target="iPAgx51U0GACMJcgSTTd-8">
          <mxGeometry relative="1" as="geometry" />
        </mxCell>
        <mxCell id="iPAgx51U0GACMJcgSTTd-5" value="Routing planner service" style="rounded=1;whiteSpace=wrap;html=1;" vertex="1" parent="1">
          <mxGeometry x="480" y="280" width="120" height="60" as="geometry" />
        </mxCell>
        <mxCell id="iPAgx51U0GACMJcgSTTd-19" style="edgeStyle=orthogonalEdgeStyle;rounded=0;orthogonalLoop=1;jettySize=auto;html=1;exitX=0.5;exitY=1;exitDx=0;exitDy=0;entryX=0.5;entryY=0;entryDx=0;entryDy=0;" edge="1" parent="1" source="iPAgx51U0GACMJcgSTTd-6" target="iPAgx51U0GACMJcgSTTd-10">
          <mxGeometry relative="1" as="geometry" />
        </mxCell>
        <mxCell id="iPAgx51U0GACMJcgSTTd-6" value="Shortest path service" style="rounded=1;whiteSpace=wrap;html=1;" vertex="1" parent="1">
          <mxGeometry x="480" y="400" width="120" height="60" as="geometry" />
        </mxCell>
        <mxCell id="iPAgx51U0GACMJcgSTTd-22" style="edgeStyle=orthogonalEdgeStyle;rounded=0;orthogonalLoop=1;jettySize=auto;html=1;exitX=0.5;exitY=1;exitDx=0;exitDy=0;entryX=0.5;entryY=0;entryDx=0;entryDy=0;" edge="1" parent="1" source="iPAgx51U0GACMJcgSTTd-7" target="iPAgx51U0GACMJcgSTTd-9">
          <mxGeometry relative="1" as="geometry" />
        </mxCell>
        <mxCell id="iPAgx51U0GACMJcgSTTd-7" value="Ranker" style="rounded=1;whiteSpace=wrap;html=1;" vertex="1" parent="1">
          <mxGeometry x="280" y="400" width="120" height="60" as="geometry" />
        </mxCell>
        <mxCell id="iPAgx51U0GACMJcgSTTd-23" style="edgeStyle=orthogonalEdgeStyle;rounded=0;orthogonalLoop=1;jettySize=auto;html=1;exitX=0.5;exitY=1;exitDx=0;exitDy=0;entryX=0.5;entryY=0;entryDx=0;entryDy=0;" edge="1" parent="1" source="iPAgx51U0GACMJcgSTTd-8" target="iPAgx51U0GACMJcgSTTd-11">
          <mxGeometry relative="1" as="geometry" />
        </mxCell>
        <mxCell id="iPAgx51U0GACMJcgSTTd-8" value="ETA service" style="rounded=1;whiteSpace=wrap;html=1;" vertex="1" parent="1">
          <mxGeometry x="680" y="400" width="120" height="60" as="geometry" />
        </mxCell>
        <mxCell id="iPAgx51U0GACMJcgSTTd-9" value="Filter service" style="rounded=1;whiteSpace=wrap;html=1;" vertex="1" parent="1">
          <mxGeometry x="280" y="520" width="120" height="60" as="geometry" />
        </mxCell>
        <mxCell id="iPAgx51U0GACMJcgSTTd-10" value="S3" style="rounded=1;whiteSpace=wrap;html=1;" vertex="1" parent="1">
          <mxGeometry x="480" y="520" width="120" height="60" as="geometry" />
        </mxCell>
        <mxCell id="iPAgx51U0GACMJcgSTTd-11" value="Traffic DB" style="rounded=1;whiteSpace=wrap;html=1;" vertex="1" parent="1">
          <mxGeometry x="680" y="520" width="120" height="60" as="geometry" />
        </mxCell>
        <mxCell id="iPAgx51U0GACMJcgSTTd-24" style="edgeStyle=orthogonalEdgeStyle;rounded=0;orthogonalLoop=1;jettySize=auto;html=1;exitX=0.5;exitY=0;exitDx=0;exitDy=0;entryX=0.5;entryY=1;entryDx=0;entryDy=0;" edge="1" parent="1" source="iPAgx51U0GACMJcgSTTd-12" target="iPAgx51U0GACMJcgSTTd-11">
          <mxGeometry relative="1" as="geometry" />
        </mxCell>
        <mxCell id="iPAgx51U0GACMJcgSTTd-25" style="edgeStyle=orthogonalEdgeStyle;rounded=0;orthogonalLoop=1;jettySize=auto;html=1;exitX=0.5;exitY=1;exitDx=0;exitDy=0;entryX=0.5;entryY=0;entryDx=0;entryDy=0;" edge="1" parent="1" source="iPAgx51U0GACMJcgSTTd-12" target="iPAgx51U0GACMJcgSTTd-13">
          <mxGeometry relative="1" as="geometry" />
        </mxCell>
        <mxCell id="iPAgx51U0GACMJcgSTTd-12" value="Traffic update service" style="rounded=1;whiteSpace=wrap;html=1;" vertex="1" parent="1">
          <mxGeometry x="680" y="640" width="120" height="60" as="geometry" />
        </mxCell>
        <mxCell id="iPAgx51U0GACMJcgSTTd-13" value="Location DB" style="rounded=1;whiteSpace=wrap;html=1;" vertex="1" parent="1">
          <mxGeometry x="680" y="760" width="120" height="60" as="geometry" />
        </mxCell>
      </root>
    </mxGraphModel>
  </diagram>
</mxfile>
